<?xml version="1.0" encoding="UTF-8"?>
<svg id="_图层_1" data-name="图层 1"
  xmlns="http://www.w3.org/2000/svg"
  viewBox="0 0 157 124">
  <defs>
    <style>
      svg {
        shape-rendering: geometricPrecision;
        text-rendering: geometricPrecision;
      }

      .cls-1 {
        fill: blue;
      }

      .cls-1, .cls-2 {
        stroke: #fff;
        stroke-width: 1;
        stroke-linejoin: round;
        stroke-linecap: round;
      }

      .cls-2 {
        fill: #fff;
      }

      .cls-3 {
        fill: #fff;
      }
    </style>
  </defs>

  <path class="cls-1" d="M.5,123.5V.5h156v123H.5ZM49.7,55.86c3.79-23.25,33.38-33.38,50.54-16.66.72-3.46-.45-18.39-.23-22.14-.02-.77-1.37-2-2.06-2.3C42.73-7.83,1.21,69.74,48.93,104.43c.3-8.23-.63-41.03.77-48.58ZM58.14,89.47l.32,20.46c55.31,23.35,98.73-50.95,51.26-88.31.28,8.37.34,33.89.42,42.65.64,25.73-33.92,39.44-51.62,21.2-.79,1.3-.4,2.52-.38,4.01ZM101.42,62.71c-.5-29.19-43.95-29.18-44.44,0,.5,29.18,43.95,29.18,44.44,0Z"/>

  <g>
    <path class="cls-2" d="M49.7,55.86c-.69,3.64-.69,7.18-.7,10.77l-.07,37.8c-4.77-2.95-7.86-6.83-10.98-10.95-6.45-8.5-9.74-18.59-9.9-29.38-.44-29.97,23.68-54.92,53.47-52.97,5.79.38,11.11,1.34,16.44,3.62.69.3,2.04,1.53,2.06,2.3l.37,17.17c.04,1.68.31,3.22-.14,4.97-10.54-9.51-25.21-11.23-36.8-3.72-7.27,4.71-12.09,11.6-13.74,20.38Z"/>
    <path class="cls-2" d="M58.12,87.96c-.02-1.5-.39-1.2.4-2.5,6.96,6.37,15.69,9.56,25.28,8.17,14.64-2.12,26.44-14.39,26.34-29.36l-.19-29.67-.23-12.98c4.85,3.03,11.07,11.11,13.34,15.2,5.05,9.12,7.53,19.01,6.87,29.18-1.06,16.42-9.82,31.09-22.55,39.51-14.95,9.89-32.84,11.26-48.91,4.42l-.35-21.97Z"/>
    <ellipse class="cls-3" cx="79.2" cy="62.71" rx="22.22" ry="22.2"/>
  </g>
</svg>